Coordinates
version=1
nRows=34
nColumns=38
inDegrees=no

Units are S.I. units (second, meters, Newtons, ...)
If the header above contains a line with 'inDegrees', this indicates whether rotational values are in degrees (yes) or radians (no).

endheader
time	pelvis_tilt	pelvis_list	pelvis_rotation	pelvis_tx	pelvis_ty	pelvis_tz	hip_flexion_r	hip_adduction_r	hip_rotation_r	knee_angle_r	ankle_angle_r	subtalar_angle_r	mtp_angle_r	hip_flexion_l	hip_adduction_l	hip_rotation_l	knee_angle_l	ankle_angle_l	subtalar_angle_l	mtp_angle_l	lumbar_extension	lumbar_bending	lumbar_rotation	arm_flex_r	arm_add_r	arm_rot_r	elbow_flex_r	pro_sup_r	wrist_flex_r	wrist_dev_r	arm_flex_l	arm_add_l	arm_rot_l	elbow_flex_l	pro_sup_l	wrist_flex_l	wrist_dev_l
0	1.40083	1.49241	0.220524	0.672283	-0.736872	0.998101	0.532679	0.080184	-0.107478	0.711158	-0.146137	0	0	-0.253917	-0.0935856	-0.293058	0.595319	-0.167801	0	0	-0.337223	0.114574	-0.0043039	0.0621368	-0.382886	0.955195	0.441405	0.868144	0	0	-0.0101609	-0.303146	0.547629	0.491485	1.0835	0	0
0.01	1.34619	1.49305	0.267806	0.675021	-0.725827	0.99885	0.530064	0.0864145	-0.0981788	0.7151	-0.144357	0	0	-0.232783	-0.0959907	-0.285584	0.647618	-0.18236	0	0	-0.334193	0.109556	-0.0011702	0.0656162	-0.378791	0.967556	0.436692	0.860843	0	0	-0.0130704	-0.306028	0.545863	0.489918	1.08705	0	0
0.02	1.3163	1.493	0.292568	0.677467	-0.714255	0.999648	0.524202	0.0909669	-0.102259	0.717324	-0.141365	0	0	-0.212438	-0.100303	-0.277546	0.70039	-0.200453	0	0	-0.331193	0.106605	0.000228799	0.067043	-0.37599	0.977911	0.433994	0.855496	0	0	-0.0165052	-0.307761	0.542393	0.488315	1.08762	0	0
0.03	1.26644	1.49207	0.338421	0.679587	-0.702609	1.0002	0.519949	0.0943298	-0.11154	0.719713	-0.13679	0	0	-0.187521	-0.104016	-0.266745	0.755171	-0.219518	0	0	-0.325456	0.104913	0.00048936	0.0671413	-0.375075	0.986891	0.433923	0.85127	0	0	-0.0206659	-0.308813	0.538882	0.48744	1.08486	0	0
0.04	1.21011	1.48947	0.390609	0.681522	-0.691128	1.00049	0.516846	0.0989423	-0.117591	0.723668	-0.12996	0	0	-0.159337	-0.107256	-0.253067	0.811879	-0.235733	0	0	-0.318133	0.104389	0.0022322	0.0661026	-0.375901	0.994476	0.435996	0.847821	0	0	-0.0254137	-0.31084	0.538049	0.488732	1.0852	0	0
0.05	1.18157	1.4866	0.417679	0.683314	-0.680232	1.00095	0.511546	0.103744	-0.119177	0.728932	-0.120859	0	0	-0.130772	-0.110506	-0.233594	0.869499	-0.248228	0	0	-0.313538	0.105582	0.00248753	0.0660492	-0.37798	1.00159	0.440518	0.843484	0	0	-0.0295732	-0.314067	0.537062	0.493273	1.08351	0	0
0.06	1.16713	1.48351	0.430281	0.684845	-0.669528	1.00151	0.504711	0.108938	-0.116154	0.734725	-0.111702	0	0	-0.103072	-0.112688	-0.213371	0.925366	-0.253134	0	0	-0.310223	0.107744	0.00382167	0.0661532	-0.381514	1.00834	0.446244	0.838731	0	0	-0.0327019	-0.316352	0.536089	0.497629	1.07982	0	0
0.07	1.1794	1.48143	0.417648	0.686435	-0.659242	1.00234	0.494684	0.113832	-0.11269	0.73902	-0.103157	0	0	-0.0767016	-0.115002	-0.192332	0.980026	-0.247209	0	0	-0.310375	0.109699	0.00450886	0.0668996	-0.385252	1.01468	0.453364	0.83359	0	0	-0.0354791	-0.320602	0.535659	0.505172	1.07571	0	0
0.08	1.20139	1.47983	0.393404	0.688148	-0.649037	1.00332	0.483186	0.1191	-0.111019	0.741082	-0.0959681	0	0	-0.0523175	-0.11722	-0.175409	1.03164	-0.229168	0	0	-0.311947	0.110927	0.00764547	0.0679077	-0.388444	1.02044	0.459419	0.828059	0	0	-0.038456	-0.324806	0.534814	0.513889	1.07263	0	0
0.09	1.23027	1.47925	0.3604	0.689958	-0.638829	1.0044	0.470305	0.12417	-0.110784	0.740782	-0.0895679	0	0	-0.0295999	-0.117437	-0.160739	1.07969	-0.205531	0	0	-0.314427	0.110846	0.0128507	0.0687506	-0.39088	1.02524	0.464237	0.822074	0	0	-0.0409885	-0.328381	0.534125	0.521428	1.07226	0	0
0.1	1.26655	1.48008	0.31945	0.69186	-0.628515	1.00566	0.455637	0.128727	-0.110288	0.73926	-0.0828607	0	0	-0.00809834	-0.114419	-0.14525	1.12344	-0.182958	0	0	-0.317629	0.10933	0.0183173	0.0695002	-0.391684	1.0291	0.466837	0.816023	0	0	-0.0424845	-0.330812	0.533025	0.526247	1.07223	0	0
0.11	1.30886	1.48252	0.27277	0.693687	-0.618168	1.00715	0.439381	0.13178	-0.108831	0.737145	-0.0759249	0	0	0.0117348	-0.110536	-0.134039	1.16073	-0.164017	0	0	-0.321375	0.106106	0.0232687	0.070032	-0.39098	1.03237	0.467102	0.810632	0	0	-0.0426911	-0.331924	0.531453	0.528419	1.07179	0	0
0.12	1.3591	1.48617	0.218554	0.69534	-0.607851	1.00881	0.421826	0.133074	-0.106516	0.734736	-0.0698928	0	0	0.0308702	-0.106045	-0.126776	1.19252	-0.150028	0	0	-0.325699	0.101739	0.0277969	0.0707243	-0.388761	1.03443	0.464716	0.806619	0	0	-0.0414238	-0.332029	0.531096	0.527316	1.07302	0	0
0.13	1.40625	1.49008	0.167736	0.696799	-0.59761	1.01048	0.404341	0.133161	-0.103367	0.731718	-0.0637647	0	0	0.0511639	-0.10042	-0.120047	1.21983	-0.13808	0	0	-0.329375	0.0973258	0.0317247	0.0720209	-0.385816	1.03617	0.460593	0.803421	0	0	-0.038886	-0.330483	0.530749	0.523331	1.07314	0	0
0.14	1.46756	1.4938	0.103051	0.698089	-0.587431	1.01227	0.385021	0.132411	-0.10195	0.727054	-0.0584019	0	0	0.0705842	-0.0949677	-0.114303	1.24238	-0.127662	0	0	-0.333667	0.0931386	0.0356829	0.073588	-0.382527	1.03789	0.455318	0.801876	0	0	-0.0353545	-0.328506	0.53217	0.517599	1.07454	0	0
0.15	1.54021	1.49705	0.027062	0.699309	-0.57722	1.01414	0.363724	0.131259	-0.101831	0.719912	-0.0527268	0	0	0.0887906	-0.0904444	-0.110661	1.26003	-0.116594	0	0	-0.337918	0.0889226	0.0398734	0.0743012	-0.379509	1.03896	0.450263	0.8001	0	0	-0.0311757	-0.326054	0.534281	0.510371	1.07584	0	0
0.16	1.61793	1.49987	-0.054182	0.700467	-0.567089	1.01592	0.341925	0.129854	-0.102284	0.711612	-0.046826	0	0	0.106523	-0.0871976	-0.110102	1.27338	-0.105719	0	0	-0.34206	0.0846859	0.0442758	0.0749524	-0.376737	1.03949	0.445384	0.797755	0	0	-0.0269302	-0.323472	0.536581	0.502755	1.07632	0	0
0.17	1.69036	1.50198	-0.130758	0.701643	-0.557074	1.01763	0.321017	0.128572	-0.104906	0.703124	-0.0414153	0	0	0.124739	-0.0857057	-0.112851	1.28265	-0.0958935	0	0	-0.345595	0.0807454	0.0490186	0.0760958	-0.374328	1.04027	0.440758	0.795386	0	0	-0.0220973	-0.320609	0.539397	0.494571	1.0757	0	0
0.18	1.7565	1.50409	-0.201083	0.702805	-0.547159	1.01929	0.300679	0.126996	-0.107323	0.693622	-0.0362546	0	0	0.143509	-0.0842056	-0.116187	1.2873	-0.0874483	0	0	-0.348275	0.0766354	0.0533457	0.0776229	-0.372214	1.0418	0.436468	0.79341	0	0	-0.0170848	-0.317588	0.542083	0.486374	1.07165	0	0
0.19	1.82051	1.50644	-0.269446	0.703972	-0.537315	1.02088	0.280885	0.124985	-0.109355	0.683643	-0.0313454	0	0	0.162266	-0.0828946	-0.121157	1.287	-0.0801365	0	0	-0.350341	0.0718175	0.0577117	0.0793919	-0.370066	1.04494	0.432025	0.792472	0	0	-0.0128401	-0.315827	0.545699	0.480407	1.06633	0	0
0.2	1.87897	1.50895	-0.332788	0.705168	-0.527481	1.02236	0.262346	0.12272	-0.110914	0.674181	-0.0270478	0	0	0.180927	-0.0827191	-0.129383	1.28217	-0.0735455	0	0	-0.351426	0.0663967	0.06197	0.081112	-0.368221	1.04794	0.428249	0.791086	0	0	-0.00959974	-0.315559	0.550645	0.476553	1.0628	0	0
0.21	1.95091	1.51103	-0.408927	0.706284	-0.517717	1.02388	0.243336	0.120138	-0.11129	0.665299	-0.0233986	0	0	0.198232	-0.0833652	-0.139356	1.27297	-0.0674965	0	0	-0.353351	0.0609367	0.065194	0.0831075	-0.366953	1.05035	0.425786	0.788859	0	0	-0.00690718	-0.316211	0.555425	0.47407	1.05962	0	0
0.22	2.03328	1.51274	-0.494277	0.70718	-0.50802	1.02538	0.223765	0.116909	-0.112116	0.656571	-0.0202904	0	0	0.214447	-0.083988	-0.150131	1.25952	-0.062178	0	0	-0.355829	0.0559285	0.0671225	0.0854396	-0.366353	1.05334	0.424348	0.786945	0	0	-0.00454398	-0.316586	0.559196	0.472206	1.05552	0	0
0.23	2.10906	1.51466	-0.571711	0.707817	-0.498254	1.0267	0.204476	0.112804	-0.114255	0.645933	-0.0170797	0	0	0.230695	-0.0843355	-0.161659	1.24225	-0.0578644	0	0	-0.357366	0.051449	0.0676119	0.0877102	-0.365944	1.05734	0.423016	0.78566	0	0	-0.00189382	-0.316134	0.562594	0.469378	1.04995	0	0
0.24	2.18074	1.51611	-0.644703	0.708297	-0.488499	1.02792	0.184341	0.108543	-0.119354	0.631436	-0.0143598	0	0	0.246365	-0.0855654	-0.175333	1.22135	-0.0561811	0	0	-0.35878	0.0474745	0.0679261	0.0902807	-0.36538	1.06197	0.421037	0.784418	0	0	0.00101011	-0.315586	0.567248	0.465731	1.04592	0	0
0.25	2.26939	1.51563	-0.73721	0.708945	-0.479019	1.02918	0.16289	0.105945	-0.120677	0.617934	-0.0119339	0	0	0.258805	-0.0890907	-0.194286	1.19679	-0.05663	0	0	-0.362632	0.04335	0.0708585	0.0934182	-0.365948	1.0664	0.420679	0.781984	0	0	0.00425405	-0.315119	0.57193	0.463041	1.04254	0	0
0.26	2.35256	1.5151	-0.824519	0.709575	-0.469523	1.03027	0.142105	0.103282	-0.120546	0.605101	-0.00952509	0	0	0.27022	-0.0925306	-0.214822	1.16882	-0.0584379	0	0	-0.365925	0.038815	0.0744581	0.095409	-0.36733	1.07018	0.421793	0.778581	0	0	0.00695773	-0.314749	0.575674	0.461166	1.03919	0	0
0.27	2.43004	1.51462	-0.90578	0.710113	-0.459966	1.0312	0.122278	0.100048	-0.12017	0.593341	-0.00711325	0	0	0.280627	-0.0947711	-0.234621	1.13786	-0.0618416	0	0	-0.368651	0.034542	0.0779818	0.0970271	-0.368682	1.07384	0.422721	0.775032	0	0	0.00922289	-0.314044	0.578375	0.459618	1.03552	0	0
0.28	2.49877	1.51369	-0.977962	0.710571	-0.450394	1.03202	0.102569	0.0968461	-0.120302	0.581081	-0.00505261	0	0	0.289856	-0.0961924	-0.25306	1.10402	-0.0666825	0	0	-0.371222	0.0310385	0.0811325	0.0987671	-0.370033	1.07712	0.423467	0.771161	0	0	0.0111795	-0.313184	0.580821	0.458544	1.03262	0	0
0.29	2.55202	1.5129	-1.03445	0.71096	-0.440879	1.03264	0.0836569	0.0940429	-0.120142	0.568633	-0.00321964	0	0	0.298426	-0.0979226	-0.272768	1.06683	-0.072642	0	0	-0.372843	0.0279519	0.0841619	0.0999717	-0.372196	1.08038	0.425504	0.767394	0	0	0.0124463	-0.312663	0.582846	0.458665	1.03124	0	0
0.3	2.60133	1.51242	-1.08822	0.711392	-0.431397	1.03314	0.0654553	0.0912689	-0.117696	0.556418	-0.00130272	0	0	0.305353	-0.100401	-0.296722	1.02561	-0.0801457	0	0	-0.374116	0.0244735	0.0881512	0.101268	-0.374642	1.08423	0.427716	0.764106	0	0	0.0134604	-0.311857	0.583499	0.458977	1.02983	0	0
0.31	2.64127	1.51214	-1.13313	0.711793	-0.422049	1.03342	0.0487245	0.0885697	-0.114675	0.545978	0.000521291	0	0	0.311429	-0.102466	-0.321051	0.981203	-0.0884745	0	0	-0.37506	0.0213539	0.0924346	0.103086	-0.377548	1.08848	0.430445	0.761109	0	0	0.0140854	-0.311018	0.582959	0.4602	1.02805	0	0
0.32	2.67009	1.5129	-1.16421	0.711922	-0.412664	1.03342	0.0338055	0.0854538	-0.116088	0.536174	0.00221744	0	0	0.318013	-0.10193	-0.340265	0.934003	-0.0971617	0	0	-0.374666	0.0191405	0.0940181	0.104819	-0.379981	1.09254	0.432706	0.758329	0	0	0.0145495	-0.310341	0.582324	0.461498	1.02672	0	0
0.33	2.68693	1.51509	-1.18166	0.711866	-0.403163	1.03308	0.0209763	0.0822424	-0.119802	0.527578	0.0040095	0	0	0.325052	-0.0995023	-0.356411	0.883811	-0.106133	0	0	-0.37231	0.0174888	0.0939775	0.106111	-0.381688	1.09604	0.433796	0.755596	0	0	0.0143808	-0.309474	0.581184	0.461956	1.02602	0	0
